<svg width="120" height="120" viewBox="0 0 120 120" fill="none" xmlns="http://www.w3.org/2000/svg">
  <defs>
    <linearGradient id="dgCircleGradient" x1="10" y1="10" x2="110" y2="110" gradientUnits="userSpaceOnUse">
      <stop offset="0" stop-color="#C87AD0"/>
      <stop offset="1" stop-color="#F3C4F1"/>
    </linearGradient>
  </defs>

  <!-- Outer circle bordes -->
  <circle cx="60" cy="60" r="56" fill="url(#dgCircleGradient)" stroke="#FBEAFA" stroke-width="4" />

  <!-- DG stylizado simplificado -->
  <path
    d="M32 30C34 32 36.5 38 37.5 46C38.5 54 38.5 62 37 68C35 76 31 80 28 82"
    stroke="#FDF7FF"
    stroke-width="4"
    stroke-linecap="round"
    stroke-linejoin="round"
  />

  <path
    d="M44 32C50 30 56 30 61 32C68 35 72 41 72 50C72 60 66 68 56 71C50 73 44 72 40 70"
    stroke="#FDF7FF"
    stroke-width="4"
    stroke-linecap="round"
    stroke-linejoin="round"
  />

  <path
    d="M72 34C78 34 86 38 90 44C93 49 94.5 55 93 60C91.5 65 88 70 83 72"
    stroke="#FDF7FF"
    stroke-width="4"
    stroke-linecap="round"
    stroke-linejoin="round"
  />

  <!-- Detalle interior tipo pincelada -->
  <path
    d="M50 44C51.5 42 54 40.5 57 40.5C62 40.5 66 44 66 49C66 54 62.5 57.5 57.5 57.5C54.5 57.5 52 56.5 50 55"
    stroke="#FDF7FF"
    stroke-width="3.5"
    stroke-linecap="round"
    stroke-linejoin="round"
  />
</svg>

